<mxfile host="Electron" agent="Mozilla/5.0 (Windows NT 10.0; Win64; x64) AppleWebKit/537.36 (KHTML, like Gecko) draw.io/27.0.9 Chrome/134.0.6998.205 Electron/35.4.0 Safari/537.36" version="27.0.9">
  <diagram name="PÃ¡gina-1" id="5J9P-F-92iz1LlyCXI1H">
    <mxGraphModel dx="1111" dy="537" grid="1" gridSize="10" guides="1" tooltips="1" connect="1" arrows="1" fold="1" page="1" pageScale="1" pageWidth="827" pageHeight="1169" math="0" shadow="0">
      <root>
        <mxCell id="0" />
        <mxCell id="1" parent="0" />
        <mxCell id="tSIf7pIuXMufibrca_2Z-4" style="edgeStyle=orthogonalEdgeStyle;rounded=0;orthogonalLoop=1;jettySize=auto;html=1;exitX=1;exitY=0.5;exitDx=0;exitDy=0;entryX=0;entryY=0.5;entryDx=0;entryDy=0;" edge="1" parent="1" source="tSIf7pIuXMufibrca_2Z-1" target="tSIf7pIuXMufibrca_2Z-2">
          <mxGeometry relative="1" as="geometry" />
        </mxCell>
        <mxCell id="tSIf7pIuXMufibrca_2Z-1" value="PO" style="rounded=0;whiteSpace=wrap;html=1;" vertex="1" parent="1">
          <mxGeometry x="180" y="130" width="120" height="60" as="geometry" />
        </mxCell>
        <mxCell id="tSIf7pIuXMufibrca_2Z-5" style="edgeStyle=orthogonalEdgeStyle;rounded=0;orthogonalLoop=1;jettySize=auto;html=1;exitX=0.5;exitY=1;exitDx=0;exitDy=0;entryX=1;entryY=0.5;entryDx=0;entryDy=0;" edge="1" parent="1" source="tSIf7pIuXMufibrca_2Z-2" target="tSIf7pIuXMufibrca_2Z-3">
          <mxGeometry relative="1" as="geometry" />
        </mxCell>
        <mxCell id="tSIf7pIuXMufibrca_2Z-2" value="SCRUM" style="rounded=0;whiteSpace=wrap;html=1;" vertex="1" parent="1">
          <mxGeometry x="380" y="130" width="120" height="60" as="geometry" />
        </mxCell>
        <mxCell id="tSIf7pIuXMufibrca_2Z-6" style="edgeStyle=orthogonalEdgeStyle;rounded=0;orthogonalLoop=1;jettySize=auto;html=1;exitX=0;exitY=0.5;exitDx=0;exitDy=0;entryX=0.5;entryY=1;entryDx=0;entryDy=0;" edge="1" parent="1" source="tSIf7pIuXMufibrca_2Z-3" target="tSIf7pIuXMufibrca_2Z-1">
          <mxGeometry relative="1" as="geometry" />
        </mxCell>
        <mxCell id="tSIf7pIuXMufibrca_2Z-3" value="SQUAD" style="rounded=0;whiteSpace=wrap;html=1;" vertex="1" parent="1">
          <mxGeometry x="280" y="240" width="120" height="60" as="geometry" />
        </mxCell>
      </root>
    </mxGraphModel>
  </diagram>
</mxfile>
